<svg id="Capa_1" enable-background="new 0 0 354.059 354.059" height="512" viewBox="0 0 354.059 354.059" width="512" xmlns="http://www.w3.org/2000/svg"><path d="m312.747 32.458c-31.918 0-63.558 4.797-94.048 14.257l-75.307 23.373c-33.105 10.273-67.448 15.478-102.086 15.478-16.269 0-29.504-13.236-29.504-29.504s13.236-29.504 29.504-29.504h29.504v41.306h11.802v-47.208c0-3.257-2.638-5.901-5.901-5.901h-35.405c-22.771 0-41.306 18.529-41.306 41.306v224.233c0 22.777 18.535 41.306 41.306 41.306 35.824 0 71.353-5.387 105.584-16.003l75.313-23.373c17.95-5.57 36.479-9.388 55.144-11.566v62.744c0 3.257 2.638 5.901 5.901 5.901 39.046 0 70.811-31.764 70.811-70.811v-194.728c-.006-22.777-18.541-41.306-41.312-41.306zm29.504 236.035c0 30.543-23.332 55.746-53.108 58.714v-212.137h23.604c11.548 0 22.004-4.762 29.504-12.421zm-29.504-165.225h-29.504c-3.263 0-5.901 2.644-5.901 5.901v149.599c-19.851 2.231-39.554 6.261-58.643 12.179l-75.307 23.373c-33.104 10.273-67.447 15.478-102.085 15.478-16.269 0-29.504-13.236-29.504-29.504v-195.383c7.506 7.677 17.95 12.457 29.504 12.457 35.824 0 71.353-5.388 105.584-16.003l75.319-23.373c29.339-9.111 59.805-13.731 90.537-13.731 16.269 0 29.504 13.236 29.504 29.504s-13.236 29.503-29.504 29.503z"/><path d="m130.557 219.628c-6.733-5.382-12.539-10.026-12.539-16.044 0-3.363-1.387-6.397-4.013-8.775-2.779-2.514-11.218-10.161-60.425-5.293-13.655 1.351-25.327 10.144-30.443 22.949l-1.304 3.257c-2.891 7.223-3.423 15.035-1.54 22.589h.006c2.649 10.598 9.784 19.402 19.573 24.152 17.567 8.533 40.952 19.526 52.671 23.432 2.413.803 5.039 1.198 7.801 1.198 8.12 0 17.449-3.399 26.277-9.76 10.108-7.282 20.901-19.626 20.901-32.443 0-11.684-9.011-18.901-16.965-25.262zm-10.834 48.133c-8.639 6.22-17.608 8.875-23.444 6.934-11.696-3.9-37.128-15.991-51.249-22.854-6.638-3.216-11.477-9.194-13.283-16.393-1.28-5.134-.915-10.439 1.05-15.342l1.304-3.257c3.476-8.698 11.389-14.67 20.647-15.584 38.633-3.83 50.287.502 51.467 2.319 0 11.684 9.011 18.901 16.965 25.262 6.733 5.382 12.539 10.026 12.539 16.044.001 6.679-6.572 16.085-15.996 22.871z"/><path d="m200.63 215.385c-16.823 0-29.504 7.612-29.504 17.703s12.681 17.703 29.504 17.703 29.504-7.612 29.504-17.703-12.681-17.703-29.504-17.703zm0 23.604c-11.424 0-17.703-4.432-17.703-5.901s6.279-5.901 17.703-5.901 17.703 4.432 17.703 5.901-6.279 5.901-17.703 5.901z"/><path d="m58.531 155.084-.691-11.784c-4.148.242-8.326.732-12.404 1.458l2.065 11.619c3.624-.644 7.33-1.081 11.03-1.293z"/><path d="m128.096 164.643c-3.316-2.508-6.81-4.839-10.386-6.939l-5.972 10.185c3.181 1.865 6.284 3.936 9.229 6.166z"/><path d="m246.696 181.285h11.802v11.802h-11.802z" transform="matrix(.983 -.185 .185 .983 -30.214 49.847)"/><path d="m82.736 144.793c-4.083-.732-8.249-1.227-12.404-1.475l-.702 11.778c3.682.224 7.394.661 11.017 1.316z"/><path d="m223.494 185.635h11.802v11.802h-11.802z" transform="matrix(.983 -.185 .185 .983 -31.416 45.639)"/><path d="m106.588 152.039c-3.806-1.664-7.742-3.116-11.707-4.325l-3.434 11.294c3.535 1.074 7.034 2.36 10.409 3.841z"/><path d="m151.865 193.87c3.812 1.629 7.771 3.051 11.755 4.219l3.328-11.318c-3.541-1.044-7.057-2.307-10.45-3.759z"/><path d="m23.397 148.927h11.802v11.802h-11.802z" transform="matrix(.965 -.263 .263 .965 -39.644 13.134)"/><path d="m213.069 200.615-2.166-11.601c-3.617.679-7.317 1.145-11.005 1.387l.785 11.772c4.148-.271 8.314-.797 12.386-1.558z"/><path d="m188.799 190.489c-3.688-.189-7.4-.602-11.035-1.221l-1.983 11.637c4.083.696 8.261 1.157 12.415 1.369z"/><path d="m146.566 178.05c-3.198-1.835-6.32-3.883-9.282-6.084l-7.04 9.471c3.334 2.478 6.851 4.786 10.45 6.845z"/><path d="m267.269 69.592-13.531 13.531-13.531-13.531-8.344 8.344 13.531 13.531-11.247 11.247c-6.32-3.369-13.743-5.346-21.715-5.346-17.667 0-33.21 9.672-38.946 23.609-14.369.277-25.964 10.757-25.964 23.598 0 13.017 11.914 23.604 26.554 23.604 6.096 0 11.932-1.882 16.623-5.275 6.509 3.464 13.932 5.275 21.733 5.275 22.771 0 41.306-15.879 41.306-35.405 0-8.781-3.771-16.806-9.967-22.996l9.967-9.967 13.531 13.531 8.344-8.344-13.531-13.531 13.531-13.531zm-54.837 86.784c-6.951 0-13.714-1.994-19.042-5.618-1.015-.684-2.166-1.021-3.322-1.021-1.581 0-3.139.631-4.296 1.853-2.856 3.045-7.122 4.786-11.696 4.786-8.137 0-14.752-5.293-14.752-11.802s6.615-11.802 14.752-11.802c.926 0 1.835.112 2.72.248 3.051.454 5.948-1.505 6.638-4.514 2.573-11.206 14.776-19.337 28.997-19.337 16.269 0 29.504 10.586 29.504 23.604s-13.235 23.603-29.503 23.603z"/></svg>